<mxfile host="app.diagrams.net" modified="2022-01-27T16:03:09.451Z" agent="5.0 (X11)" etag="wQuE-kVSnUNytIr1vwf4" version="16.4.7" type="github">
  <diagram id="RKy1fjhTBrsu8SNiVf_X" name="Page-1">
    <mxGraphModel dx="1422" dy="791" grid="1" gridSize="10" guides="1" tooltips="1" connect="1" arrows="1" fold="1" page="1" pageScale="1" pageWidth="827" pageHeight="1169" math="0" shadow="0">
      <root>
        <mxCell id="0" />
        <mxCell id="1" parent="0" />
        <mxCell id="lGQlqXO6w54q4nxRXXpG-11" style="edgeStyle=none;shape=connector;rounded=0;orthogonalLoop=1;jettySize=auto;html=1;exitX=0.91;exitY=0.64;exitDx=0;exitDy=0;entryX=-0.008;entryY=0.117;entryDx=0;entryDy=0;entryPerimeter=0;dashed=1;labelBackgroundColor=default;fontFamily=Helvetica;fontSize=11;fontColor=default;endArrow=classic;strokeColor=#9673a6;strokeWidth=2;fillColor=#e1d5e7;exitPerimeter=0;" edge="1" parent="1" source="RLwwSOCWPDE9d2zi6889-81" target="RLwwSOCWPDE9d2zi6889-88">
          <mxGeometry relative="1" as="geometry" />
        </mxCell>
        <mxCell id="lGQlqXO6w54q4nxRXXpG-9" style="edgeStyle=none;shape=connector;rounded=0;orthogonalLoop=1;jettySize=auto;html=1;exitX=0.5;exitY=1;exitDx=0;exitDy=0;entryX=0.65;entryY=-0.05;entryDx=0;entryDy=0;entryPerimeter=0;dashed=1;labelBackgroundColor=default;fontFamily=Helvetica;fontSize=11;fontColor=default;endArrow=classic;strokeColor=#9673a6;strokeWidth=2;fillColor=#e1d5e7;" edge="1" parent="1" source="RLwwSOCWPDE9d2zi6889-81" target="RLwwSOCWPDE9d2zi6889-85">
          <mxGeometry relative="1" as="geometry" />
        </mxCell>
        <mxCell id="lGQlqXO6w54q4nxRXXpG-8" style="edgeStyle=none;shape=connector;rounded=0;orthogonalLoop=1;jettySize=auto;html=1;exitX=0;exitY=1;exitDx=0;exitDy=0;entryX=0.858;entryY=0;entryDx=0;entryDy=0;entryPerimeter=0;dashed=1;labelBackgroundColor=default;fontFamily=Helvetica;fontSize=11;fontColor=default;endArrow=classic;strokeColor=#9673a6;strokeWidth=2;fillColor=#e1d5e7;" edge="1" parent="1" source="RLwwSOCWPDE9d2zi6889-81" target="RLwwSOCWPDE9d2zi6889-84">
          <mxGeometry relative="1" as="geometry" />
        </mxCell>
        <mxCell id="lGQlqXO6w54q4nxRXXpG-7" style="edgeStyle=none;shape=connector;rounded=0;orthogonalLoop=1;jettySize=auto;html=1;exitX=0.66;exitY=0.88;exitDx=0;exitDy=0;entryX=0.383;entryY=-0.017;entryDx=0;entryDy=0;entryPerimeter=0;dashed=1;labelBackgroundColor=default;fontFamily=Helvetica;fontSize=11;fontColor=default;endArrow=classic;strokeColor=#9673a6;strokeWidth=2;fillColor=#e1d5e7;exitPerimeter=0;" edge="1" parent="1" source="RLwwSOCWPDE9d2zi6889-81" target="RLwwSOCWPDE9d2zi6889-89">
          <mxGeometry relative="1" as="geometry" />
        </mxCell>
        <mxCell id="lGQlqXO6w54q4nxRXXpG-6" style="edgeStyle=none;shape=connector;rounded=0;orthogonalLoop=1;jettySize=auto;html=1;exitX=1;exitY=0.5;exitDx=0;exitDy=0;entryX=0;entryY=0.25;entryDx=0;entryDy=0;dashed=1;labelBackgroundColor=default;fontFamily=Helvetica;fontSize=11;fontColor=default;endArrow=classic;strokeColor=#9673a6;strokeWidth=2;fillColor=#e1d5e7;" edge="1" parent="1" source="RLwwSOCWPDE9d2zi6889-81" target="RLwwSOCWPDE9d2zi6889-113">
          <mxGeometry relative="1" as="geometry" />
        </mxCell>
        <mxCell id="RLwwSOCWPDE9d2zi6889-111" value="" style="endArrow=classic;html=1;rounded=0;labelBackgroundColor=default;fontFamily=Helvetica;fontSize=11;fontColor=default;strokeColor=#808080;strokeWidth=2;exitX=0;exitY=1;exitDx=0;exitDy=0;entryX=1;entryY=0.5;entryDx=0;entryDy=0;" parent="1" source="RLwwSOCWPDE9d2zi6889-105" target="RLwwSOCWPDE9d2zi6889-85" edge="1">
          <mxGeometry width="50" height="50" relative="1" as="geometry">
            <mxPoint x="580" y="360" as="sourcePoint" />
            <mxPoint x="470" y="430" as="targetPoint" />
          </mxGeometry>
        </mxCell>
        <mxCell id="RLwwSOCWPDE9d2zi6889-108" value="" style="endArrow=classic;html=1;rounded=0;labelBackgroundColor=default;fontFamily=Helvetica;fontSize=11;fontColor=default;strokeColor=#808080;strokeWidth=2;exitX=1;exitY=1;exitDx=0;exitDy=0;entryX=0;entryY=0.5;entryDx=0;entryDy=0;" parent="1" source="RLwwSOCWPDE9d2zi6889-104" target="RLwwSOCWPDE9d2zi6889-89" edge="1">
          <mxGeometry width="50" height="50" relative="1" as="geometry">
            <mxPoint x="270" y="470" as="sourcePoint" />
            <mxPoint x="190" y="490" as="targetPoint" />
          </mxGeometry>
        </mxCell>
        <mxCell id="RLwwSOCWPDE9d2zi6889-77" value="" style="endArrow=classic;html=1;rounded=0;labelBackgroundColor=default;fontFamily=Helvetica;fontSize=11;fontColor=default;strokeColor=#808080;strokeWidth=2;exitX=1;exitY=1;exitDx=0;exitDy=0;entryX=0.25;entryY=0;entryDx=0;entryDy=0;" parent="1" source="RLwwSOCWPDE9d2zi6889-98" target="RLwwSOCWPDE9d2zi6889-89" edge="1">
          <mxGeometry width="50" height="50" relative="1" as="geometry">
            <mxPoint x="380" y="290" as="sourcePoint" />
            <mxPoint x="560" y="370" as="targetPoint" />
          </mxGeometry>
        </mxCell>
        <mxCell id="RLwwSOCWPDE9d2zi6889-78" value="" style="endArrow=classic;html=1;rounded=0;labelBackgroundColor=default;fontFamily=Helvetica;fontSize=11;fontColor=default;strokeColor=#808080;strokeWidth=2;exitX=1;exitY=0.5;exitDx=0;exitDy=0;entryX=0;entryY=0.25;entryDx=0;entryDy=0;" parent="1" source="RLwwSOCWPDE9d2zi6889-98" target="RLwwSOCWPDE9d2zi6889-88" edge="1">
          <mxGeometry width="50" height="50" relative="1" as="geometry">
            <mxPoint x="320" y="310" as="sourcePoint" />
            <mxPoint x="190" y="450" as="targetPoint" />
          </mxGeometry>
        </mxCell>
        <mxCell id="RLwwSOCWPDE9d2zi6889-79" value="" style="endArrow=classic;html=1;rounded=0;labelBackgroundColor=default;fontFamily=Helvetica;fontSize=11;fontColor=default;strokeColor=#808080;strokeWidth=2;exitX=0;exitY=0.5;exitDx=0;exitDy=0;entryX=1;entryY=0.5;entryDx=0;entryDy=0;" parent="1" source="RLwwSOCWPDE9d2zi6889-99" target="RLwwSOCWPDE9d2zi6889-84" edge="1">
          <mxGeometry width="50" height="50" relative="1" as="geometry">
            <mxPoint x="430" y="360" as="sourcePoint" />
            <mxPoint x="196.96000000000004" y="451.02" as="targetPoint" />
          </mxGeometry>
        </mxCell>
        <mxCell id="RLwwSOCWPDE9d2zi6889-83" value="Industry A" style="swimlane;fillColor=#fff2cc;strokeColor=#d6b656;strokeWidth=2;fontSize=14;" parent="1" vertex="1">
          <mxGeometry x="40" y="250" width="160" height="280" as="geometry" />
        </mxCell>
        <mxCell id="RLwwSOCWPDE9d2zi6889-84" value="&lt;b&gt;Intermediate input producers&lt;/b&gt;" style="rounded=0;whiteSpace=wrap;html=1;fillColor=#ffe6cc;strokeColor=#d79b00;strokeWidth=2;" parent="RLwwSOCWPDE9d2zi6889-83" vertex="1">
          <mxGeometry x="20" y="40" width="120" height="60" as="geometry" />
        </mxCell>
        <mxCell id="RLwwSOCWPDE9d2zi6889-85" value="&lt;div&gt;&lt;b&gt;Final good &lt;br&gt;&lt;/b&gt;&lt;/div&gt;&lt;div&gt;&lt;b&gt;producers&lt;/b&gt;&lt;/div&gt;" style="rounded=0;whiteSpace=wrap;html=1;fillColor=#ffe6cc;strokeColor=#d79b00;strokeWidth=2;" parent="RLwwSOCWPDE9d2zi6889-83" vertex="1">
          <mxGeometry x="20" y="200" width="120" height="60" as="geometry" />
        </mxCell>
        <mxCell id="RLwwSOCWPDE9d2zi6889-87" value="Industry B" style="swimlane;fillColor=#fff2cc;strokeColor=#d6b656;strokeWidth=2;fontSize=14;" parent="1" vertex="1">
          <mxGeometry x="480" y="250" width="160" height="280" as="geometry" />
        </mxCell>
        <mxCell id="RLwwSOCWPDE9d2zi6889-88" value="&lt;b&gt;Intermediate input producers&lt;/b&gt;" style="rounded=0;whiteSpace=wrap;html=1;fillColor=#ffe6cc;strokeColor=#d79b00;strokeWidth=2;" parent="RLwwSOCWPDE9d2zi6889-87" vertex="1">
          <mxGeometry x="20" y="40" width="120" height="60" as="geometry" />
        </mxCell>
        <mxCell id="RLwwSOCWPDE9d2zi6889-89" value="&lt;div&gt;&lt;b&gt;Final good &lt;br&gt;&lt;/b&gt;&lt;/div&gt;&lt;div&gt;&lt;b&gt;producers&lt;/b&gt;&lt;/div&gt;" style="rounded=0;whiteSpace=wrap;html=1;fillColor=#ffe6cc;strokeColor=#d79b00;strokeWidth=2;" parent="RLwwSOCWPDE9d2zi6889-87" vertex="1">
          <mxGeometry x="20" y="200" width="120" height="60" as="geometry" />
        </mxCell>
        <mxCell id="frqVIynp-WOr74QWTHK4-5" value="&lt;font style=&quot;font-size: 11px;&quot;&gt;as workforce&lt;/font&gt;" style="edgeStyle=orthogonalEdgeStyle;rounded=0;orthogonalLoop=1;jettySize=auto;html=1;entryX=0.5;entryY=1;entryDx=0;entryDy=0;fontSize=11;strokeWidth=2;strokeColor=#808080;verticalAlign=top;" parent="1" source="RLwwSOCWPDE9d2zi6889-91" target="RLwwSOCWPDE9d2zi6889-99" edge="1">
          <mxGeometry relative="1" as="geometry" />
        </mxCell>
        <mxCell id="RLwwSOCWPDE9d2zi6889-91" value="&lt;font size=&quot;1&quot;&gt;&lt;b style=&quot;font-size: 14px&quot;&gt;Households&lt;/b&gt;&lt;/font&gt;" style="ellipse;whiteSpace=wrap;html=1;fillColor=#f8cecc;strokeColor=#b85450;strokeWidth=2;" parent="1" vertex="1">
          <mxGeometry x="250" y="560" width="160" height="80" as="geometry" />
        </mxCell>
        <mxCell id="RLwwSOCWPDE9d2zi6889-93" value="consume" style="endArrow=classic;html=1;rounded=0;labelBackgroundColor=default;fontFamily=Helvetica;fontSize=11;fontColor=default;strokeColor=#808080;strokeWidth=2;exitX=1;exitY=1;exitDx=0;exitDy=0;entryX=0;entryY=0;entryDx=0;entryDy=0;" parent="1" source="RLwwSOCWPDE9d2zi6889-85" target="RLwwSOCWPDE9d2zi6889-91" edge="1">
          <mxGeometry width="50" height="50" relative="1" as="geometry">
            <mxPoint x="210" y="620" as="sourcePoint" />
            <mxPoint x="260" y="570" as="targetPoint" />
          </mxGeometry>
        </mxCell>
        <mxCell id="RLwwSOCWPDE9d2zi6889-94" value="consume" style="endArrow=classic;html=1;rounded=0;labelBackgroundColor=default;fontFamily=Helvetica;fontSize=11;fontColor=default;strokeColor=#808080;strokeWidth=2;exitX=0;exitY=1;exitDx=0;exitDy=0;entryX=1;entryY=0;entryDx=0;entryDy=0;" parent="1" source="RLwwSOCWPDE9d2zi6889-89" target="RLwwSOCWPDE9d2zi6889-91" edge="1">
          <mxGeometry width="50" height="50" relative="1" as="geometry">
            <mxPoint x="290" y="510" as="sourcePoint" />
            <mxPoint x="327.57359312880726" y="591.7157287525383" as="targetPoint" />
          </mxGeometry>
        </mxCell>
        <mxCell id="RLwwSOCWPDE9d2zi6889-95" value="" style="endArrow=classic;html=1;rounded=0;labelBackgroundColor=default;fontFamily=Helvetica;fontSize=11;fontColor=default;strokeColor=#808080;strokeWidth=2;exitX=0;exitY=0.5;exitDx=0;exitDy=0;entryX=1;entryY=0.25;entryDx=0;entryDy=0;" parent="1" source="RLwwSOCWPDE9d2zi6889-98" target="RLwwSOCWPDE9d2zi6889-84" edge="1">
          <mxGeometry width="50" height="50" relative="1" as="geometry">
            <mxPoint x="400" y="460" as="sourcePoint" />
            <mxPoint x="450" y="410" as="targetPoint" />
          </mxGeometry>
        </mxCell>
        <mxCell id="RLwwSOCWPDE9d2zi6889-96" value="" style="endArrow=classic;html=1;rounded=0;labelBackgroundColor=default;fontFamily=Helvetica;fontSize=11;fontColor=default;strokeColor=#808080;strokeWidth=2;exitX=0;exitY=1;exitDx=0;exitDy=0;entryX=0.75;entryY=0;entryDx=0;entryDy=0;" parent="1" source="RLwwSOCWPDE9d2zi6889-98" target="RLwwSOCWPDE9d2zi6889-85" edge="1">
          <mxGeometry width="50" height="50" relative="1" as="geometry">
            <mxPoint x="310" y="340" as="sourcePoint" />
            <mxPoint x="220" y="355" as="targetPoint" />
          </mxGeometry>
        </mxCell>
        <mxCell id="RLwwSOCWPDE9d2zi6889-97" value="" style="endArrow=classic;html=1;rounded=0;labelBackgroundColor=default;fontFamily=Helvetica;fontSize=11;fontColor=default;strokeColor=#808080;strokeWidth=2;exitX=0;exitY=1;exitDx=0;exitDy=0;entryX=0.808;entryY=0.017;entryDx=0;entryDy=0;entryPerimeter=0;" parent="1" source="RLwwSOCWPDE9d2zi6889-99" target="RLwwSOCWPDE9d2zi6889-85" edge="1">
          <mxGeometry width="50" height="50" relative="1" as="geometry">
            <mxPoint x="330" y="360" as="sourcePoint" />
            <mxPoint x="190" y="450" as="targetPoint" />
          </mxGeometry>
        </mxCell>
        <mxCell id="RLwwSOCWPDE9d2zi6889-98" value="&lt;b&gt;Capital&lt;/b&gt;" style="rhombus;whiteSpace=wrap;html=1;fillColor=#dae8fc;strokeColor=#6c8ebf;strokeWidth=2;" parent="1" vertex="1">
          <mxGeometry x="280" y="190" width="100" height="100" as="geometry" />
        </mxCell>
        <mxCell id="RLwwSOCWPDE9d2zi6889-99" value="&lt;b&gt;Labour&lt;/b&gt;" style="rhombus;whiteSpace=wrap;html=1;fillColor=#dae8fc;strokeColor=#6c8ebf;strokeWidth=2;" parent="1" vertex="1">
          <mxGeometry x="280" y="300" width="100" height="100" as="geometry" />
        </mxCell>
        <mxCell id="RLwwSOCWPDE9d2zi6889-100" value="" style="endArrow=classic;html=1;rounded=0;labelBackgroundColor=default;fontFamily=Helvetica;fontSize=11;fontColor=default;strokeColor=#808080;strokeWidth=2;exitX=1;exitY=0.5;exitDx=0;exitDy=0;entryX=0;entryY=0.5;entryDx=0;entryDy=0;" parent="1" source="RLwwSOCWPDE9d2zi6889-99" target="RLwwSOCWPDE9d2zi6889-88" edge="1">
          <mxGeometry width="50" height="50" relative="1" as="geometry">
            <mxPoint x="420" y="310" as="sourcePoint" />
            <mxPoint x="196.96000000000004" y="451.02" as="targetPoint" />
          </mxGeometry>
        </mxCell>
        <mxCell id="RLwwSOCWPDE9d2zi6889-101" value="" style="endArrow=classic;html=1;rounded=0;labelBackgroundColor=default;fontFamily=Helvetica;fontSize=11;fontColor=default;strokeColor=#808080;strokeWidth=2;exitX=1;exitY=1;exitDx=0;exitDy=0;entryX=0.1;entryY=-0.017;entryDx=0;entryDy=0;entryPerimeter=0;" parent="1" source="RLwwSOCWPDE9d2zi6889-99" target="RLwwSOCWPDE9d2zi6889-89" edge="1">
          <mxGeometry width="50" height="50" relative="1" as="geometry">
            <mxPoint x="475" y="290" as="sourcePoint" />
            <mxPoint x="560" y="355" as="targetPoint" />
          </mxGeometry>
        </mxCell>
        <mxCell id="RLwwSOCWPDE9d2zi6889-104" value="&lt;div&gt;&lt;b&gt;Intermediate &lt;br&gt;&lt;/b&gt;&lt;/div&gt;&lt;div&gt;&lt;b&gt;input A&lt;/b&gt;&lt;/div&gt;" style="rhombus;whiteSpace=wrap;html=1;fontFamily=Helvetica;fontSize=11;fillColor=#dae8fc;strokeColor=#6c8ebf;strokeWidth=2;" parent="1" vertex="1">
          <mxGeometry x="210" y="370" width="100" height="100" as="geometry" />
        </mxCell>
        <mxCell id="RLwwSOCWPDE9d2zi6889-105" value="&lt;div&gt;&lt;b&gt;Intermediate &lt;br&gt;&lt;/b&gt;&lt;/div&gt;&lt;div&gt;&lt;b&gt;input B&lt;/b&gt;&lt;/div&gt;" style="rhombus;whiteSpace=wrap;html=1;fontFamily=Helvetica;fontSize=11;fillColor=#dae8fc;strokeColor=#6c8ebf;strokeWidth=2;" parent="1" vertex="1">
          <mxGeometry x="350" y="370" width="100" height="100" as="geometry" />
        </mxCell>
        <mxCell id="RLwwSOCWPDE9d2zi6889-106" value="" style="endArrow=classic;html=1;rounded=0;labelBackgroundColor=default;fontFamily=Helvetica;fontSize=11;fontColor=default;strokeColor=#808080;strokeWidth=2;exitX=0.808;exitY=1.033;exitDx=0;exitDy=0;exitPerimeter=0;entryX=0;entryY=0;entryDx=0;entryDy=0;" parent="1" source="RLwwSOCWPDE9d2zi6889-84" target="RLwwSOCWPDE9d2zi6889-104" edge="1">
          <mxGeometry width="50" height="50" relative="1" as="geometry">
            <mxPoint x="230" y="400" as="sourcePoint" />
            <mxPoint x="280" y="350" as="targetPoint" />
          </mxGeometry>
        </mxCell>
        <mxCell id="RLwwSOCWPDE9d2zi6889-107" value="" style="endArrow=classic;html=1;rounded=0;labelBackgroundColor=default;fontFamily=Helvetica;fontSize=11;fontColor=default;strokeColor=#808080;strokeWidth=2;exitX=0;exitY=1;exitDx=0;exitDy=0;entryX=1;entryY=0.5;entryDx=0;entryDy=0;" parent="1" source="RLwwSOCWPDE9d2zi6889-104" target="RLwwSOCWPDE9d2zi6889-85" edge="1">
          <mxGeometry width="50" height="50" relative="1" as="geometry">
            <mxPoint x="166.96000000000004" y="361.98" as="sourcePoint" />
            <mxPoint x="270" y="430" as="targetPoint" />
          </mxGeometry>
        </mxCell>
        <mxCell id="RLwwSOCWPDE9d2zi6889-109" value="" style="endArrow=classic;html=1;rounded=0;labelBackgroundColor=default;fontFamily=Helvetica;fontSize=11;fontColor=default;strokeColor=#808080;strokeWidth=2;exitX=1;exitY=1;exitDx=0;exitDy=0;entryX=0;entryY=0.5;entryDx=0;entryDy=0;" parent="1" source="RLwwSOCWPDE9d2zi6889-105" target="RLwwSOCWPDE9d2zi6889-89" edge="1">
          <mxGeometry width="50" height="50" relative="1" as="geometry">
            <mxPoint x="310" y="470" as="sourcePoint" />
            <mxPoint x="550" y="490" as="targetPoint" />
          </mxGeometry>
        </mxCell>
        <mxCell id="RLwwSOCWPDE9d2zi6889-110" value="" style="endArrow=classic;html=1;rounded=0;labelBackgroundColor=default;fontFamily=Helvetica;fontSize=11;fontColor=default;strokeColor=#808080;strokeWidth=2;exitX=0.25;exitY=1;exitDx=0;exitDy=0;entryX=1;entryY=0;entryDx=0;entryDy=0;" parent="1" source="RLwwSOCWPDE9d2zi6889-88" target="RLwwSOCWPDE9d2zi6889-105" edge="1">
          <mxGeometry width="50" height="50" relative="1" as="geometry">
            <mxPoint x="470" y="470" as="sourcePoint" />
            <mxPoint x="550" y="490" as="targetPoint" />
          </mxGeometry>
        </mxCell>
        <mxCell id="RLwwSOCWPDE9d2zi6889-112" value="Capital industry" style="swimlane;fontFamily=Helvetica;fontSize=14;fillColor=#fff2cc;strokeColor=#d6b656;strokeWidth=2;" parent="1" vertex="1">
          <mxGeometry x="480" y="90" width="160" height="120" as="geometry" />
        </mxCell>
        <mxCell id="RLwwSOCWPDE9d2zi6889-113" value="&lt;b&gt;Capital good producers&lt;/b&gt;" style="rounded=0;whiteSpace=wrap;html=1;fillColor=#ffe6cc;strokeColor=#d79b00;strokeWidth=2;" parent="RLwwSOCWPDE9d2zi6889-112" vertex="1">
          <mxGeometry x="20" y="40" width="120" height="60" as="geometry" />
        </mxCell>
        <mxCell id="RLwwSOCWPDE9d2zi6889-114" value="" style="endArrow=classic;html=1;rounded=0;labelBackgroundColor=default;fontFamily=Helvetica;fontSize=11;fontColor=default;strokeColor=#808080;strokeWidth=2;exitX=1;exitY=0;exitDx=0;exitDy=0;entryX=0;entryY=0.25;entryDx=0;entryDy=0;" parent="1" source="RLwwSOCWPDE9d2zi6889-98" target="RLwwSOCWPDE9d2zi6889-113" edge="1">
          <mxGeometry width="50" height="50" relative="1" as="geometry">
            <mxPoint x="420" y="240" as="sourcePoint" />
            <mxPoint x="550" y="315" as="targetPoint" />
          </mxGeometry>
        </mxCell>
        <mxCell id="RLwwSOCWPDE9d2zi6889-115" value="" style="endArrow=classic;html=1;rounded=0;labelBackgroundColor=default;fontFamily=Helvetica;fontSize=11;fontColor=default;strokeColor=#808080;strokeWidth=2;exitX=1;exitY=0;exitDx=0;exitDy=0;entryX=0;entryY=0.75;entryDx=0;entryDy=0;" parent="1" source="RLwwSOCWPDE9d2zi6889-99" target="RLwwSOCWPDE9d2zi6889-113" edge="1">
          <mxGeometry width="50" height="50" relative="1" as="geometry">
            <mxPoint x="420" y="360" as="sourcePoint" />
            <mxPoint x="550" y="330" as="targetPoint" />
          </mxGeometry>
        </mxCell>
        <mxCell id="RLwwSOCWPDE9d2zi6889-116" value="" style="endArrow=classic;html=1;rounded=0;labelBackgroundColor=default;fontFamily=Helvetica;fontSize=11;fontColor=default;strokeColor=#808080;strokeWidth=2;exitX=0;exitY=0.5;exitDx=0;exitDy=0;" parent="1" source="RLwwSOCWPDE9d2zi6889-113" target="RLwwSOCWPDE9d2zi6889-98" edge="1">
          <mxGeometry width="50" height="50" relative="1" as="geometry">
            <mxPoint x="395" y="335" as="sourcePoint" />
            <mxPoint x="550" y="185" as="targetPoint" />
          </mxGeometry>
        </mxCell>
        <mxCell id="lGQlqXO6w54q4nxRXXpG-1" style="rounded=0;orthogonalLoop=1;jettySize=auto;html=1;exitX=0;exitY=1;exitDx=0;exitDy=0;entryX=1;entryY=0;entryDx=0;entryDy=0;strokeWidth=2;fillColor=#e1d5e7;strokeColor=#9673a6;dashed=1;" edge="1" parent="1" source="RLwwSOCWPDE9d2zi6889-82" target="RLwwSOCWPDE9d2zi6889-84">
          <mxGeometry relative="1" as="geometry" />
        </mxCell>
        <mxCell id="lGQlqXO6w54q4nxRXXpG-2" style="edgeStyle=none;shape=connector;rounded=0;orthogonalLoop=1;jettySize=auto;html=1;exitX=1;exitY=1;exitDx=0;exitDy=0;entryX=0;entryY=0;entryDx=0;entryDy=0;dashed=1;labelBackgroundColor=default;fontFamily=Helvetica;fontSize=11;fontColor=default;endArrow=classic;strokeColor=#9673a6;strokeWidth=2;fillColor=#e1d5e7;" edge="1" parent="1" source="RLwwSOCWPDE9d2zi6889-82" target="RLwwSOCWPDE9d2zi6889-88">
          <mxGeometry relative="1" as="geometry" />
        </mxCell>
        <mxCell id="lGQlqXO6w54q4nxRXXpG-3" style="edgeStyle=none;shape=connector;rounded=0;orthogonalLoop=1;jettySize=auto;html=1;exitX=1;exitY=0.5;exitDx=0;exitDy=0;entryX=0;entryY=0;entryDx=0;entryDy=0;dashed=1;labelBackgroundColor=default;fontFamily=Helvetica;fontSize=11;fontColor=default;endArrow=classic;strokeColor=#9673a6;strokeWidth=2;fillColor=#e1d5e7;" edge="1" parent="1" source="RLwwSOCWPDE9d2zi6889-82" target="RLwwSOCWPDE9d2zi6889-113">
          <mxGeometry relative="1" as="geometry" />
        </mxCell>
        <mxCell id="RLwwSOCWPDE9d2zi6889-82" value="&lt;div&gt;&lt;b&gt;Raw &lt;br&gt;&lt;/b&gt;&lt;/div&gt;&lt;div&gt;&lt;b&gt;Materials&lt;/b&gt;&lt;/div&gt;" style="rhombus;whiteSpace=wrap;html=1;dashed=1;fillColor=#e1d5e7;strokeColor=#9673a6;strokeWidth=2;" parent="1" vertex="1">
          <mxGeometry x="330" y="50" width="100" height="100" as="geometry" />
        </mxCell>
        <mxCell id="RLwwSOCWPDE9d2zi6889-81" value="&lt;b&gt;Energy&lt;/b&gt;" style="rhombus;whiteSpace=wrap;html=1;dashed=1;fillColor=#e1d5e7;strokeColor=#9673a6;strokeWidth=2;" parent="1" vertex="1">
          <mxGeometry x="210" y="90" width="100" height="100" as="geometry" />
        </mxCell>
      </root>
    </mxGraphModel>
  </diagram>
</mxfile>
